<svg width="256" height="256" viewBox="0 0 256 256" fill="none" xmlns="http://www.w3.org/2000/svg">
<mask id="path-1-outside-1_69_159" maskUnits="userSpaceOnUse" x="55" y="36" width="171" height="204" fill="black">
<rect fill="white" x="55" y="36" width="171" height="204"/>
<path d="M129.906 229.072C113.01 229.072 99.2713 225.36 88.69 217.936C78.1087 210.427 70.9407 200.229 67.186 187.344L102.002 171.728C104.733 178.384 108.146 183.291 112.242 186.448C116.338 189.605 121.629 191.184 128.114 191.184C132.722 191.184 136.733 190.117 140.146 187.984C143.645 185.765 146.503 182.693 148.722 178.768C150.941 174.757 152.519 170.107 153.458 164.816L174.194 46.8H213.618L191.09 174.288C189.127 185.637 185.757 194.896 180.978 202.064C176.285 209.232 170.909 214.779 164.85 218.704C158.877 222.629 152.775 225.317 146.546 226.768C140.402 228.304 134.855 229.072 129.906 229.072Z"/>
</mask>
<path d="M129.906 229.072C113.01 229.072 99.2713 225.36 88.69 217.936C78.1087 210.427 70.9407 200.229 67.186 187.344L102.002 171.728C104.733 178.384 108.146 183.291 112.242 186.448C116.338 189.605 121.629 191.184 128.114 191.184C132.722 191.184 136.733 190.117 140.146 187.984C143.645 185.765 146.503 182.693 148.722 178.768C150.941 174.757 152.519 170.107 153.458 164.816L174.194 46.8H213.618L191.09 174.288C189.127 185.637 185.757 194.896 180.978 202.064C176.285 209.232 170.909 214.779 164.85 218.704C158.877 222.629 152.775 225.317 146.546 226.768C140.402 228.304 134.855 229.072 129.906 229.072Z" fill="url(#paint0_linear_69_159)"/>
<path d="M88.69 217.936L82.9025 226.091L82.9245 226.107L82.9465 226.122L88.69 217.936ZM67.186 187.344L63.0935 178.22L55.1496 181.783L57.5853 190.142L67.186 187.344ZM102.002 171.728L111.254 167.932L107.333 158.377L97.9095 162.604L102.002 171.728ZM112.242 186.448L118.347 178.528L118.347 178.528L112.242 186.448ZM140.146 187.984L145.446 196.464L145.474 196.447L145.501 196.429L140.146 187.984ZM148.722 178.768L157.428 183.689L157.45 183.649L157.472 183.609L148.722 178.768ZM153.458 164.816L163.304 166.563L163.306 166.555L163.307 166.547L153.458 164.816ZM174.194 46.8V36.8H165.798L164.345 45.0694L174.194 46.8ZM213.618 46.8L223.465 48.5401L225.54 36.8H213.618V46.8ZM191.09 174.288L181.243 172.548L181.239 172.566L181.236 172.584L191.09 174.288ZM180.978 202.064L172.658 196.517L172.635 196.551L172.612 196.586L180.978 202.064ZM164.85 218.704L159.413 210.311L159.385 210.329L159.358 210.347L164.85 218.704ZM146.546 226.768L144.278 217.029L144.199 217.047L144.121 217.067L146.546 226.768ZM129.906 219.072C114.439 219.072 102.883 215.678 94.4335 209.75L82.9465 226.122C95.6593 235.042 111.581 239.072 129.906 239.072V219.072ZM94.4775 209.781C85.802 203.624 79.9341 195.348 76.7867 184.546L57.5853 190.142C61.9473 205.111 70.4153 217.229 82.9025 226.091L94.4775 209.781ZM71.2785 196.468L106.094 180.852L97.9095 162.604L63.0935 178.22L71.2785 196.468ZM92.7503 175.524C95.9 183.201 100.207 189.797 106.137 194.368L118.347 178.528C116.085 176.784 113.565 173.567 111.254 167.932L92.7503 175.524ZM106.137 194.368C112.386 199.185 119.991 201.184 128.114 201.184V181.184C123.267 181.184 120.29 180.025 118.347 178.528L106.137 194.368ZM128.114 201.184C134.319 201.184 140.223 199.728 145.446 196.464L134.846 179.504C133.242 180.507 131.125 181.184 128.114 181.184V201.184ZM145.501 196.429C150.51 193.253 154.472 188.917 157.428 183.689L140.016 173.847C138.534 176.47 136.779 178.278 134.791 179.539L145.501 196.429ZM157.472 183.609C160.307 178.484 162.206 172.756 163.304 166.563L143.612 163.069C142.833 167.458 141.574 171.03 139.972 173.927L157.472 183.609ZM163.307 166.547L184.043 48.5305L164.345 45.0694L143.609 163.085L163.307 166.547ZM174.194 56.8H213.618V36.8H174.194V56.8ZM203.771 45.0599L181.243 172.548L200.937 176.028L223.465 48.5401L203.771 45.0599ZM181.236 172.584C179.435 182.998 176.449 190.83 172.658 196.517L189.299 207.611C195.064 198.962 198.819 188.276 200.944 175.992L181.236 172.584ZM172.612 196.586C168.541 202.804 164.105 207.271 159.413 210.311L170.287 227.097C177.712 222.286 184.029 215.66 189.344 207.542L172.612 196.586ZM159.358 210.347C154.255 213.701 149.233 215.875 144.278 217.029L148.814 236.507C156.318 234.76 163.499 231.558 170.342 227.061L159.358 210.347ZM144.121 217.067C138.561 218.456 133.847 219.072 129.906 219.072V239.072C135.863 239.072 142.243 238.152 148.971 236.469L144.121 217.067Z" fill="black" mask="url(#path-1-outside-1_69_159)"/>
<defs>
<linearGradient id="paint0_linear_69_159" x1="137.069" y1="9.72917e-07" x2="137.069" y2="266.272" gradientUnits="userSpaceOnUse">
<stop stop-color="#EAEDF0"/>
<stop offset="1" stop-color="#89A0C2"/>
</linearGradient>
</defs>
</svg>
