<svg width="24" height="24" viewBox="0 0 24 24" fill="none" xmlns="http://www.w3.org/2000/svg">
<rect x="0.5" y="0.5" width="23" height="23" stroke="#DFE2E5"/>
<path d="M23.3915 9.63413L23.3584 9.54938L20.1506 1.17788C20.0853 1.01378 19.9697 0.874561 19.8204 0.780193C19.6711 0.687415 19.4968 0.642717 19.3213 0.65214C19.1457 0.661562 18.9772 0.724651 18.8387 0.832881C18.7018 0.944365 18.6025 1.09515 18.554 1.26488L16.3882 7.89151H7.61792L5.45192 1.26488C5.40484 1.09422 5.30526 0.942696 5.1673 0.831756C5.02873 0.723526 4.86028 0.660437 4.68471 0.651015C4.50913 0.641592 4.3349 0.68629 4.18555 0.779069C4.03659 0.873824 3.92111 1.01291 3.85536 1.17676L0.641609 9.54451L0.609734 9.62926C-0.338828 12.1078 0.466672 14.9153 2.58542 16.5135L2.59648 16.5221L2.62592 16.5429L7.51236 20.2022L9.9298 22.0318L11.4024 23.1437C11.5747 23.2745 11.785 23.3454 12.0013 23.3454C12.2176 23.3454 12.4279 23.2745 12.6002 23.1437L14.0728 22.0318L16.4902 20.2022L21.4061 16.5208L21.4183 16.5111C23.532 14.9124 24.3362 12.1101 23.3915 9.63413Z" fill="#E24329"/>
<path d="M23.3916 9.63413L23.3584 9.54938C21.7954 9.87027 20.3225 10.5323 19.0449 11.4883L12 16.8154C14.3991 18.6304 16.4876 20.2073 16.4876 20.2073L21.4035 16.5259L21.4157 16.5161C23.5328 14.9173 24.3381 12.1121 23.3916 9.63413Z" fill="#FC6D26"/>
<path d="M7.51239 20.2071L9.92983 22.0367L11.4025 23.1486C11.5747 23.2794 11.785 23.3502 12.0013 23.3502C12.2176 23.3502 12.428 23.2794 12.6002 23.1486L14.0728 22.0367L16.4903 20.2071C16.4903 20.2071 14.3993 18.6253 12.0002 16.8152C10.5033 17.9446 9.0074 19.0752 7.51239 20.2071Z" fill="#FCA326"/>
<path d="M4.95373 11.4883C3.67733 10.5302 2.20476 9.86644 0.641609 9.54449L0.609734 9.62924C-0.338828 12.1078 0.466672 14.9152 2.58542 16.5135L2.59648 16.5221L2.62592 16.5429L7.51236 20.2022L12 16.8103L4.95373 11.4883Z" fill="#FC6D26"/>
</svg>
